<svg xmlns="http://www.w3.org/2000/svg" viewBox="0 0 512 512" style="height: 512px; width: 512px;"><defs><filter id="shadow-1" height="300%" width="300%" x="-100%" y="-100%"><feFlood flood-color="rgba(94, 217, 194, 1)" result="flood"></feFlood><feComposite in="flood" in2="SourceGraphic" operator="atop" result="composite"></feComposite><feGaussianBlur in="composite" stdDeviation="15" result="blur"></feGaussianBlur><feOffset result="offset"></feOffset><feComposite in="SourceGraphic" in2="offset" operator="over"></feComposite></filter></defs><polygon points="456.15,415.61,330.05,409.77,256,512,181.95,409.77,55.85,415.61,89.61,293.98,6.42,199.03,122.57,149.59,144.93,25.35,256,85.33,367.07,25.35,389.43,149.59,505.58,199.03,422.39,293.98" fill="#4de273" fill-opacity="1"></polygon><g class="" transform="translate(-9,17)" style=""><path d="M17.47 250.9C88.82 328.1 158 397.6 224.5 485.5c72.3-143.8 146.3-288.1 268.4-444.37L460 26.06C356.9 135.4 276.8 238.9 207.2 361.9c-48.4-43.6-126.62-105.3-174.38-137z" fill="#ffffff" fill-opacity="1" transform="translate(128, 128) scale(0.5, 0.5) rotate(0, 256, 256) skewX(0) skewY(0)" filter="url(#shadow-1)"></path></g></svg>