<svg xmlns="http://www.w3.org/2000/svg" viewBox="0 0 512 512" style="height: 512px; width: 512px;"><defs><filter id="shadow-1" height="300%" width="300%" x="-100%" y="-100%"><feFlood flood-color="rgba(227, 170, 0, 1)" result="flood"></feFlood><feComposite in="flood" in2="SourceGraphic" operator="atop" result="composite"></feComposite><feGaussianBlur in="composite" stdDeviation="15" result="blur"></feGaussianBlur><feOffset result="offset"></feOffset><feComposite in="SourceGraphic" in2="offset" operator="over"></feComposite></filter><pattern><pattern id="pattern" patternUnits="userSpaceOnUse" width="16" height="16"><path d="M 0 4 l 4 0 l 0 -4 M 12 16 l 0 -4 l 4 0 M 4 8 l 0 4 l 4 0 M 8 4 l 4 0 l 0 4" fill="transparent" stroke="#f8e71c" stroke-width="2" stroke-linecap="square" shape-rendering="auto"></path></pattern></pattern></defs><circle cx="256" cy="256" r="253" fill="url(#pattern)" fill-opacity="1" stroke="#f5a623" stroke-opacity="1" stroke-width="3"></circle><g class="" transform="translate(0,0)" style=""><path d="M92.906 94.813l60.438 79.75 78.125-79.75H92.905zm189.25 0L359.25 173.5l58.688-78.688H282.155zm-25.344.843l-84.718 86.47H341.53l-84.717-86.47zm177.907 7.906l-58.626 78.563H494.53l-59.81-78.563zm-358.064.75l-57.78 77.813h116.78l-59-77.813zm-58.5 96.5L226.562 429.22 143.344 200.81H18.156zm145.063 0l93.593 256.844 93.593-256.844H163.22zm207.06 0L287.064 429.22 495.469 200.81H370.28z" fill="#e3aa00" fill-opacity="1" transform="translate(25.6, 25.6) scale(0.9, 0.9) rotate(0, 256, 256) skewX(0) skewY(0)" filter="url(#shadow-1)"></path></g></svg>