<svg width="26" height="27" viewBox="0 0 26 27" fill="none" xmlns="http://www.w3.org/2000/svg">
<path d="M13.3918 26.35C10.7552 26.35 8.49184 25.79 6.60184 24.67C4.71184 23.55 3.26517 22.01 2.26184 20.05C1.2585 18.0667 0.756836 15.815 0.756836 13.295C0.756836 10.7983 1.27017 8.58167 2.29684 6.645C3.3235 4.70833 4.73517 3.19167 6.53184 2.095C8.35184 0.998333 10.4168 0.449999 12.7268 0.449999C15.0835 0.449999 17.1602 0.998333 18.9568 2.095C20.7768 3.19167 22.2002 4.70833 23.2268 6.645C24.2535 8.58167 24.7668 10.81 24.7668 13.33C24.7668 15.1967 24.4518 16.935 23.8218 18.545C23.1918 20.1317 22.2702 21.4617 21.0568 22.535C19.8435 23.6083 18.3385 24.3317 16.5418 24.705L13.3918 26.35ZM12.7268 23.9C14.5702 23.9 16.1685 23.445 17.5218 22.535C18.8752 21.6017 19.9252 20.33 20.6718 18.72C21.4418 17.11 21.8268 15.29 21.8268 13.26C21.8268 11.2533 21.4418 9.48 20.6718 7.94C19.9252 6.4 18.8635 5.19833 17.4868 4.335C16.1335 3.47167 14.5468 3.04 12.7268 3.04C10.9068 3.04 9.32017 3.47167 7.96684 4.335C6.6135 5.19833 5.5635 6.4 4.81684 7.94C4.07017 9.45667 3.69684 11.23 3.69684 13.26C3.69684 15.3133 4.07017 17.145 4.81684 18.755C5.58684 20.3417 6.6485 21.6017 8.00184 22.535C9.35517 23.445 10.9302 23.9 12.7268 23.9ZM13.3918 26.35L12.7618 24.46L25.7118 23.48V26C24.2885 26 23.0868 26.0117 22.1068 26.035C21.1502 26.0817 20.2635 26.1283 19.4468 26.175C18.6302 26.2217 17.7552 26.2567 16.8218 26.28C15.8885 26.3267 14.7452 26.35 13.3918 26.35Z" fill="black"/>
</svg>
